ply
format ascii 1.0
comment generated by tinyply 2.2
element vertex 24
property float x
property float y
property float z
property float nx
property float ny
property float nz
property float u
property float v
element face 12
property list uchar uint vertex_indices
end_header
-1 -1 -1 -1 0 0 0 0 
-1 -1 1 -1 0 0 1 0 
-1 1 1 -1 0 0 1 1 
-1 1 -1 -1 0 0 0 1 
1 -1 1 1 0 0 0 0 
1 -1 -1 1 0 0 1 0 
1 1 -1 1 0 0 1 1 
1 1 1 1 0 0 0 1 
-1 -1 -1 0 -1 0 0 0 
1 -1 -1 0 -1 0 1 0 
1 -1 1 0 -1 0 1 1 
-1 -1 1 0 -1 0 0 1 
1 1 -1 0 1 0 0 0 
-1 1 -1 0 1 0 1 0 
-1 1 1 0 1 0 1 1 
1 1 1 0 1 0 0 1 
-1 -1 -1 0 0 -1 0 0 
-1 1 -1 0 0 -1 1 0 
1 1 -1 0 0 -1 1 1 
1 -1 -1 0 0 -1 0 1 
-1 1 1 0 0 1 0 0 
-1 -1 1 0 0 1 1 0 
1 -1 1 0 0 1 1 1 
1 1 1 0 0 1 0 1 
3 0 1 2 
3 0 2 3 
3 4 5 6 
3 4 6 7 
3 8 9 10 
3 8 10 11 
3 12 13 14 
3 12 14 15 
3 16 17 18 
3 16 18 19 
3 20 21 22 
3 20 22 23 
